<svg width="11" height="11" viewBox="0 0 11 11" fill="none" xmlns="http://www.w3.org/2000/svg">
<g clip-path="url(#clip0)">
<path d="M2.46953 5.85H10.6735V4.618H2.46953L5.43753 1.664L4.65353 0.879999L0.299531 5.234L4.65353 9.588L5.43753 8.818L2.46953 5.85ZM24.1711 1.804C23.9611 0.838 23.4711 0.0679998 22.7151 -0.492C21.9451 -1.052 21.0351 -1.332 19.9711 -1.332C18.5431 -1.332 17.3951 -0.842 16.5411 0.109999C15.6731 1.062 15.2531 2.336 15.2531 3.904C15.2531 5.486 15.6591 6.76 16.4711 7.726C17.2831 8.706 18.4031 9.182 19.8451 9.182C21.3571 9.182 22.4351 8.706 23.0511 7.726L23.1211 9H24.2411V3.82H20.2091V5.052H22.8971V5.318C22.8971 5.822 22.7991 6.256 22.6171 6.62C22.4351 6.984 22.1971 7.25 21.8891 7.446C21.5811 7.642 21.2731 7.768 20.9511 7.852C20.6151 7.936 20.2651 7.978 19.9011 7.978C18.9491 7.978 18.1791 7.614 17.5911 6.886C17.0031 6.158 16.7091 5.164 16.7091 3.904C16.7091 2.644 17.0031 1.65 17.6051 0.936C18.1931 0.235999 18.9631 -0.128 19.9011 -0.128C20.6851 -0.128 21.3151 0.0539992 21.7911 0.39C22.2671 0.74 22.6031 1.216 22.7851 1.804H24.1711ZM33.0545 5.262C33.0545 4.002 32.6905 3.022 31.9765 2.35C31.2485 1.678 30.4085 1.342 29.4425 1.342C28.4625 1.342 27.6225 1.678 26.9085 2.35C26.1805 3.022 25.8305 4.002 25.8305 5.262C25.8305 6.536 26.1805 7.502 26.9085 8.174C27.6225 8.846 28.4625 9.182 29.4425 9.182C30.4085 9.182 31.2485 8.846 31.9765 8.174C32.6905 7.502 33.0545 6.536 33.0545 5.262ZM29.4425 8.062C28.7985 8.062 28.2665 7.838 27.8325 7.362C27.3985 6.9 27.1885 6.2 27.1885 5.262C27.1885 4.31 27.3985 3.596 27.8325 3.148C28.2525 2.7 28.7985 2.462 29.4425 2.462C30.0725 2.462 30.6045 2.7 31.0385 3.162C31.4725 3.638 31.6965 4.338 31.6965 5.262C31.6965 6.172 31.4725 6.872 31.0385 7.348C30.5905 7.824 30.0585 8.062 29.4425 8.062ZM38.0966 -1.15V9H42.1006C43.1926 9 44.0606 8.762 44.7326 8.272C45.4046 7.782 45.7406 7.026 45.7406 6.004C45.7406 4.828 45.2226 4.03 44.2006 3.596C44.5366 3.4 44.8166 3.092 45.0126 2.686C45.2086 2.294 45.3206 1.846 45.3206 1.356C45.3206 -0.31 44.1306 -1.15 41.7506 -1.15H38.0966ZM39.5246 3.19V0.0539992H41.9746C42.5626 0.0539992 43.0246 0.179999 43.3606 0.431999C43.6966 0.683999 43.8786 1.048 43.8786 1.552C43.8786 2.644 43.2346 3.19 41.9746 3.19H39.5246ZM39.5246 7.796V4.324H42.0306C42.7866 4.324 43.3606 4.464 43.7246 4.73C44.0886 5.01 44.2706 5.43 44.2706 6.018C44.2706 7.208 43.5426 7.796 42.1146 7.796H39.5246ZM46.8588 7.012C46.8588 7.684 47.0968 8.216 47.6008 8.608C48.0908 9 48.7068 9.182 49.4488 9.182C50.6808 9.182 51.5348 8.776 52.0248 7.964C52.0248 8.3 52.0668 8.636 52.1228 9H53.4108C53.2708 8.272 53.2008 7.334 53.2148 6.158L53.2288 4.422C53.2288 3.358 52.9908 2.574 52.5148 2.07C52.0248 1.566 51.2688 1.314 50.2328 1.314C49.4488 1.314 48.7628 1.552 48.1748 2C47.5868 2.462 47.2648 3.078 47.2088 3.848H48.5248C48.5528 3.386 48.7068 3.022 49.0148 2.756C49.3088 2.49 49.7148 2.35 50.2468 2.35C50.7508 2.35 51.1708 2.504 51.4788 2.784C51.7868 3.078 51.9548 3.54 51.9548 4.184V4.366C51.1008 4.464 50.3868 4.576 49.8268 4.688C49.2668 4.8 48.7348 4.954 48.2588 5.15C47.7828 5.346 47.4188 5.598 47.1948 5.906C46.9708 6.214 46.8588 6.592 46.8588 7.012ZM52.0528 5.374V5.85C52.0528 6.676 51.8288 7.264 51.3948 7.628C50.9468 7.992 50.4008 8.174 49.7288 8.174C49.2808 8.174 48.9168 8.076 48.6648 7.852C48.3988 7.642 48.2728 7.348 48.2728 6.984C48.2728 6.732 48.3568 6.522 48.5248 6.34C48.6928 6.158 48.9448 6.004 49.3088 5.878C49.6588 5.766 50.0508 5.668 50.4708 5.584C50.8908 5.514 51.4228 5.444 52.0528 5.374ZM61.3991 3.988C61.3011 3.302 60.9651 2.686 60.3911 2.154C59.8171 1.622 59.1031 1.342 58.2491 1.342C57.1431 1.342 56.2611 1.72 55.6031 2.448C54.9311 3.176 54.6091 4.114 54.6091 5.248C54.6091 6.424 54.9171 7.362 55.5611 8.09C56.2051 8.818 57.0591 9.182 58.1231 9.182C58.9631 9.182 59.7051 8.93 60.3351 8.412C60.9651 7.908 61.3431 7.278 61.4831 6.55H60.1671C60.0691 6.97 59.8451 7.334 59.4811 7.628C59.1171 7.922 58.6691 8.062 58.1651 8.062C57.5491 8.062 57.0451 7.824 56.6251 7.334C56.2051 6.844 55.9951 6.144 55.9951 5.234C55.9951 4.338 56.2051 3.652 56.6251 3.176C57.0451 2.7 57.5491 2.462 58.1651 2.462C58.6411 2.462 59.0611 2.616 59.4251 2.896C59.7891 3.176 60.0131 3.54 60.1111 3.988H61.3991ZM64.1941 -1.15H62.9201V9H64.1941V6.48L65.0761 5.528L67.6381 9H69.1921L65.9301 4.59L68.8001 1.468H67.2321L64.1941 4.856V-1.15Z" fill="black"/>
</g>
<defs>
<clipPath id="clip0">
<rect width="11" height="11" fill="white"/>
</clipPath>
</defs>
</svg>
