<svg width="528" height="397" viewBox="0 0 528 397" fill="none" xmlns="http://www.w3.org/2000/svg">
<path fill-rule="evenodd" clip-rule="evenodd" d="M0 8C0 3.58172 3.58172 0 8 0H124.003C128.421 0 132.003 3.58172 132.003 7.99999V256.011C132.003 260.43 135.585 264.011 140.003 264.011L520 264.011C524.419 264.011 528 267.593 528 272.011V388.014C528 392.433 524.419 396.014 520 396.014L131.994 396.014C131.993 396.014 131.991 396.013 131.991 396.012C131.991 396.01 131.99 396.009 131.989 396.009H8C3.58172 396.009 0 392.427 0 388.009V8ZM271.993 0.00451625C267.575 0.00451645 263.993 3.58624 263.993 8.00452V124.008C263.993 128.426 267.575 132.008 271.993 132.008L519.999 132.007C524.418 132.007 527.999 128.426 527.999 124.007L527.999 8.0045C527.999 3.58622 524.417 0.00450522 519.999 0.00450541L271.993 0.00451625Z" fill="black"/>
</svg>
