<svg width="64" height="64" viewBox="0 0 64 64" fill="none" xmlns="http://www.w3.org/2000/svg">
<g filter="url(#filter0_b)">
<rect width="64" height="64" rx="32" fill="white"/>
</g>
<path fill-rule="evenodd" clip-rule="evenodd" d="M23 21.2103C22.8401 21.2083 22.6847 21.1565 22.5556 21.0622C22.4265 20.9678 22.3299 20.8356 22.2793 20.6839C22.2287 20.5322 22.2267 20.3685 22.2734 20.2155C22.3201 20.0625 22.4133 19.9279 22.54 19.8303C25.2992 17.8783 28.6221 16.8842 32 17.0003C34.66 17.0003 38.48 17.4503 41.5 19.6203C41.6651 19.7388 41.7768 19.9178 41.8105 20.1183C41.8442 20.3187 41.7973 20.5243 41.68 20.6903C41.5582 20.8546 41.3768 20.9644 41.1748 20.9962C40.9728 21.028 40.7664 20.9792 40.6 20.8603C38.0355 19.2305 35.0365 18.418 32 18.5303C28.9685 18.4273 25.9855 19.3117 23.5 21.0503C23.3585 21.163 23.1806 21.2199 23 21.2103ZM44.23 28.2603C44.1063 28.2592 43.9847 28.2287 43.8752 28.1713C43.7656 28.1139 43.6713 28.0313 43.6 27.9303C41.87 25.4903 38.78 22.2403 32 22.2403C29.7457 22.1836 27.5111 22.6722 25.4862 23.6646C23.4613 24.657 21.7062 26.1239 20.37 27.9403C20.25 28.1039 20.0703 28.2135 19.8699 28.2454C19.6696 28.2772 19.4648 28.2287 19.3 28.1103C19.2135 28.0502 19.1405 27.9727 19.0856 27.8828C19.0307 27.793 18.9951 27.6927 18.981 27.5883C18.9669 27.4839 18.9746 27.3778 19.0037 27.2766C19.0328 27.1754 19.0826 27.0813 19.15 27.0003C20.6313 24.9992 22.5718 23.3833 24.8081 22.2886C27.0443 21.194 29.5109 20.6527 32 20.7103C37.61 20.7103 41.81 22.7903 44.84 27.0503C44.9563 27.2176 45.0016 27.424 44.966 27.6246C44.9303 27.8251 44.8167 28.0034 44.65 28.1203C44.5262 28.2061 44.3805 28.2547 44.23 28.2603ZM27.8452 46.8652C27.9735 46.9525 28.1249 46.9996 28.28 47.0004C28.3498 47.0084 28.4202 47.0084 28.49 47.0004C33.49 45.0904 36.49 41.1104 36.49 36.3704C36.5259 35.7656 36.4339 35.16 36.22 34.5932C36.0061 34.0264 35.6751 33.511 35.2486 33.0807C34.8221 32.6504 34.3097 32.3149 33.7447 32.096C33.1798 31.8771 32.5751 31.7798 31.97 31.8104C29.3 31.8104 27.77 33.3904 27.41 36.5004C27.3774 36.8608 27.2738 37.2112 27.105 37.5314C26.9363 37.8515 26.7058 38.1351 26.4269 38.3657C26.148 38.5963 25.8261 38.7693 25.4799 38.8748C25.1338 38.9803 24.7701 39.0162 24.41 38.9804C24.0188 38.9854 23.631 38.9074 23.2721 38.7517C22.9132 38.596 22.5914 38.366 22.3278 38.0769C22.0643 37.7878 21.8649 37.4462 21.7429 37.0745C21.6209 36.7028 21.579 36.3095 21.62 35.9204C21.6434 34.5818 21.9306 33.2609 22.4652 32.0334C22.9999 30.806 23.7713 29.696 24.7355 28.7671C25.6997 27.8382 26.8377 27.1086 28.0842 26.6202C29.3308 26.1317 30.6614 25.8939 32 25.9204C34.7663 25.9151 37.4219 27.0068 39.3845 28.9564C41.3472 30.9059 42.4568 33.5541 42.47 36.3204C42.3978 38.3498 41.9679 40.3505 41.2 42.2304C41.1607 42.3229 41.1401 42.4223 41.1395 42.5228C41.1388 42.6233 41.1581 42.723 41.1962 42.816C41.2344 42.909 41.2906 42.9935 41.3616 43.0646C41.4326 43.1358 41.517 43.1921 41.61 43.2304C41.7974 43.3044 42.0061 43.3031 42.1925 43.2267C42.3789 43.1502 42.5285 43.0046 42.61 42.8204C43.4586 40.7544 43.9294 38.5528 44 36.3204C43.9815 33.1499 42.7091 30.1156 40.4606 27.8803C38.2122 25.645 35.1705 24.3903 32 24.3904C28.9079 24.3556 25.9276 25.5452 23.7094 27.6997C21.4912 29.8542 20.2152 32.7986 20.16 35.8904C20.1155 36.4817 20.1946 37.0758 20.3924 37.6348C20.5901 38.1938 20.9021 38.7055 21.3085 39.1373C21.7149 39.5691 22.2068 39.9116 22.7528 40.1428C23.2989 40.374 23.8871 40.489 24.48 40.4804C25.5825 40.5507 26.6694 40.191 27.5123 39.4768C28.3551 38.7626 28.8884 37.7495 29 36.6504C29.24 34.3004 30.14 33.3004 32 33.3004C32.4016 33.2705 32.8049 33.3276 33.1825 33.4678C33.56 33.608 33.9028 33.828 34.1876 34.1128C34.4724 34.3975 34.6924 34.7404 34.8326 35.1179C34.9728 35.4954 35.0299 35.8988 35 36.3004C35 40.3904 32.37 43.8304 28 45.5104C27.9035 45.5446 27.8151 45.5981 27.7401 45.6677C27.6651 45.7374 27.6051 45.8216 27.5639 45.9153C27.5227 46.009 27.5011 46.1101 27.5004 46.2124C27.4997 46.3148 27.52 46.4162 27.56 46.5104C27.6177 46.6544 27.717 46.778 27.8452 46.8652ZM35.77 46.2804C35.5785 46.2773 35.3942 46.2064 35.25 46.0804C35.1786 46.0097 35.122 45.9256 35.0833 45.8329C35.0447 45.7402 35.0248 45.6408 35.0248 45.5404C35.0248 45.4399 35.0447 45.3405 35.0833 45.2478C35.122 45.1551 35.1786 45.071 35.25 45.0004C37.4998 42.6683 38.7672 39.5607 38.79 36.3204C38.79 34.7604 38.31 29.6704 32.09 29.6704C31.1837 29.6385 30.2801 29.7874 29.4319 30.1085C28.5837 30.4295 27.808 30.9163 27.15 31.5404C26.5612 32.1229 26.0958 32.818 25.7814 33.5842C25.467 34.3505 25.3101 35.1722 25.32 36.0004C25.3174 36.2028 25.2351 36.3961 25.091 36.5384C24.9468 36.6806 24.7525 36.7604 24.55 36.7604C24.4493 36.7617 24.3494 36.743 24.2561 36.7054C24.1627 36.6678 24.0777 36.612 24.0061 36.5413C23.9345 36.4706 23.8776 36.3864 23.8388 36.2935C23.8 36.2007 23.78 36.101 23.78 36.0004C23.7644 34.9759 23.9526 33.9585 24.3338 33.0075C24.7149 32.0564 25.2813 31.1906 26 30.4604C26.7967 29.6957 27.7373 29.0968 28.7673 28.6986C29.7973 28.3003 30.8961 28.1106 32 28.1404C38.08 28.1404 40.24 32.5404 40.24 36.3204C40.2269 39.9273 38.8311 43.3918 36.34 46.0004C36.2712 46.0859 36.1846 46.1553 36.0861 46.2037C35.9876 46.2521 35.8797 46.2782 35.77 46.2804ZM23.1 43.6504C23.6179 43.7091 24.1387 43.7392 24.66 43.7404C26.6199 43.8286 28.5464 43.2113 30.09 42.0004C30.8946 41.2944 31.5471 40.4321 32.0078 39.4659C32.4685 38.4998 32.7279 37.4499 32.77 36.3804C32.7783 36.1784 32.708 35.981 32.5736 35.8299C32.4393 35.6788 32.2516 35.5858 32.05 35.5704C31.9491 35.5608 31.8472 35.5718 31.7507 35.6026C31.6541 35.6335 31.5648 35.6837 31.4882 35.75C31.4115 35.8164 31.3491 35.8976 31.3047 35.9888C31.2604 36.0799 31.2349 36.1791 31.23 36.2804C31.2005 37.1394 30.9975 37.9836 30.6332 38.7621C30.2688 39.5407 29.7507 40.2374 29.11 40.8104C27.72 41.9704 25.76 42.4104 23.27 42.1304C23.1702 42.1192 23.0692 42.1278 22.9727 42.1557C22.8762 42.1836 22.7862 42.2302 22.7077 42.2929C22.6292 42.3555 22.5639 42.4331 22.5154 42.521C22.4669 42.6089 22.4362 42.7056 22.425 42.8054C22.4138 42.9052 22.4224 43.0062 22.4503 43.1027C22.4782 43.1992 22.5248 43.2892 22.5875 43.3677C22.6502 43.4461 22.7277 43.5115 22.8156 43.56C22.9036 43.6085 23.0002 43.6392 23.1 43.6504Z" fill="#FC006A"/>
<defs>
<filter id="filter0_b" x="-24" y="-24" width="112" height="112" filterUnits="userSpaceOnUse" color-interpolation-filters="sRGB">
<feFlood flood-opacity="0" result="BackgroundImageFix"/>
<feGaussianBlur in="BackgroundImage" stdDeviation="12"/>
<feComposite in2="SourceAlpha" operator="in" result="effect1_backgroundBlur"/>
<feBlend mode="normal" in="SourceGraphic" in2="effect1_backgroundBlur" result="shape"/>
</filter>
</defs>
</svg>
