<svg width="64" height="65" viewBox="0 0 64 65" fill="none" xmlns="http://www.w3.org/2000/svg">
<g filter="url(#filter0_b)">
<rect y="0.5" width="64" height="64" rx="32" fill="white"/>
</g>
<path d="M44.9467 25.2066L43.0533 23.3266L44.9467 21.4466C45.1977 21.1955 45.3388 20.855 45.3388 20.4999C45.3388 20.1449 45.1977 19.8043 44.9467 19.5533C44.6956 19.3022 44.3551 19.1611 44 19.1611C43.6449 19.1611 43.3044 19.3022 43.0533 19.5533L29 33.6066C27.6214 32.697 25.9542 32.3316 24.3216 32.5811C22.6889 32.8306 21.207 33.6773 20.1629 34.9571C19.1189 36.2368 18.5871 37.8586 18.6705 39.5081C18.754 41.1576 19.4467 42.7174 20.6146 43.8853C21.7825 45.0532 23.3423 45.746 24.9918 45.8294C26.6413 45.9129 28.2631 45.3811 29.5429 44.337C30.8226 43.293 31.6693 41.811 31.9188 40.1784C32.1683 38.5457 31.8029 36.8785 30.8933 35.4999L37.4 28.9799L39.28 30.8733C39.4046 30.9968 39.5523 31.0946 39.7148 31.1609C39.8772 31.2273 40.0512 31.2609 40.2267 31.2599C40.4021 31.2609 40.5761 31.2273 40.7386 31.1609C40.901 31.0946 41.0488 30.9968 41.1733 30.8733C41.2983 30.7493 41.3975 30.6018 41.4652 30.4394C41.5329 30.2769 41.5677 30.1026 41.5677 29.9266C41.5677 29.7506 41.5329 29.5763 41.4652 29.4138C41.3975 29.2513 41.2983 29.1039 41.1733 28.9799L39.28 27.1666L41.1733 25.2733L43.0533 27.1666C43.1779 27.2902 43.3257 27.3879 43.4881 27.4543C43.6506 27.5206 43.8245 27.5543 44 27.5533C44.1755 27.5543 44.3494 27.5206 44.5119 27.4543C44.6743 27.3879 44.8221 27.2902 44.9467 27.1666C45.082 27.0417 45.19 26.8902 45.2639 26.7215C45.3378 26.5529 45.3759 26.3707 45.3759 26.1866C45.3759 26.0025 45.3378 25.8203 45.2639 25.6516C45.19 25.483 45.082 25.3314 44.9467 25.2066ZM25.3333 43.1666C24.5422 43.1666 23.7689 42.932 23.1111 42.4925C22.4533 42.0529 21.9406 41.4282 21.6378 40.6973C21.3351 39.9664 21.2559 39.1621 21.4102 38.3862C21.5645 37.6103 21.9455 36.8976 22.5049 36.3382C23.0643 35.7788 23.7771 35.3978 24.553 35.2434C25.3289 35.0891 26.1332 35.1683 26.8641 35.4711C27.595 35.7738 28.2197 36.2865 28.6592 36.9443C29.0987 37.6021 29.3333 38.3755 29.3333 39.1666C29.3333 40.2275 28.9119 41.2449 28.1618 41.995C27.4116 42.7452 26.3942 43.1666 25.3333 43.1666Z" fill="#FC006A"/>
<defs>
<filter id="filter0_b" x="-24" y="-23.5" width="112" height="112" filterUnits="userSpaceOnUse" color-interpolation-filters="sRGB">
<feFlood flood-opacity="0" result="BackgroundImageFix"/>
<feGaussianBlur in="BackgroundImage" stdDeviation="12"/>
<feComposite in2="SourceAlpha" operator="in" result="effect1_backgroundBlur"/>
<feBlend mode="normal" in="SourceGraphic" in2="effect1_backgroundBlur" result="shape"/>
</filter>
</defs>
</svg>
