<svg width="64" height="64" viewBox="0 0 64 64" fill="none" xmlns="http://www.w3.org/2000/svg">
<g filter="url(#filter0_b)">
<rect width="64" height="64" rx="32" fill="white"/>
</g>
<path fill-rule="evenodd" clip-rule="evenodd" d="M20.7777 26.3259C21.4355 26.7654 22.2089 27 23 27C24.0609 27 25.0783 26.5786 25.8284 25.8284C26.5786 25.0783 27 24.0609 27 23C27 22.2089 26.7654 21.4355 26.3259 20.7777C25.8864 20.1199 25.2616 19.6072 24.5307 19.3045C23.7998 19.0017 22.9956 18.9225 22.2196 19.0769C21.4437 19.2312 20.731 19.6122 20.1716 20.1716C19.6122 20.731 19.2312 21.4437 19.0769 22.2196C18.9225 22.9956 19.0017 23.7998 19.3045 24.5307C19.6072 25.2616 20.1199 25.8864 20.7777 26.3259ZM21.8889 21.3371C22.2178 21.1173 22.6044 21 23 21C23.5304 21 24.0391 21.2107 24.4142 21.5858C24.7893 21.9609 25 22.4696 25 23C25 23.3956 24.8827 23.7822 24.6629 24.1111C24.4432 24.44 24.1308 24.6964 23.7654 24.8478C23.3999 24.9991 22.9978 25.0387 22.6098 24.9616C22.2219 24.8844 21.8655 24.6939 21.5858 24.4142C21.3061 24.1345 21.1156 23.7781 21.0384 23.3902C20.9613 23.0022 21.0009 22.6001 21.1522 22.2346C21.3036 21.8692 21.56 21.5568 21.8889 21.3371ZM31 22H44V24H31V22ZM31 40H44V42H31V40ZM33 31H20V33H33V31ZM23 45C22.2089 45 21.4355 44.7654 20.7777 44.3259C20.1199 43.8864 19.6072 43.2616 19.3045 42.5307C19.0017 41.7998 18.9225 40.9956 19.0769 40.2196C19.2312 39.4437 19.6122 38.731 20.1716 38.1716C20.731 37.6122 21.4437 37.2312 22.2196 37.0769C22.9956 36.9225 23.7998 37.0017 24.5307 37.3045C25.2616 37.6072 25.8864 38.1199 26.3259 38.7777C26.7654 39.4355 27 40.2089 27 41C27 42.0609 26.5786 43.0783 25.8284 43.8284C25.0783 44.5786 24.0609 45 23 45ZM23 39C22.6044 39 22.2178 39.1173 21.8889 39.3371C21.56 39.5568 21.3036 39.8692 21.1522 40.2346C21.0009 40.6001 20.9613 41.0022 21.0384 41.3902C21.1156 41.7781 21.3061 42.1345 21.5858 42.4142C21.8655 42.6939 22.2219 42.8844 22.6098 42.9616C22.9978 43.0387 23.3999 42.9991 23.7654 42.8478C24.1308 42.6964 24.4432 42.44 24.6629 42.1111C24.8827 41.7822 25 41.3956 25 41C25 40.4696 24.7893 39.9609 24.4142 39.5858C24.0391 39.2107 23.5304 39 23 39ZM38.7777 35.3259C39.4355 35.7654 40.2089 36 41 36C42.0609 36 43.0783 35.5786 43.8284 34.8284C44.5786 34.0783 45 33.0609 45 32C45 31.2089 44.7654 30.4355 44.3259 29.7777C43.8864 29.1199 43.2616 28.6072 42.5307 28.3045C41.7998 28.0017 40.9956 27.9225 40.2196 28.0769C39.4437 28.2312 38.731 28.6122 38.1716 29.1716C37.6122 29.731 37.2312 30.4437 37.0769 31.2196C36.9225 31.9956 37.0017 32.7998 37.3045 33.5307C37.6072 34.2616 38.1199 34.8864 38.7777 35.3259ZM39.8889 30.3371C40.2178 30.1173 40.6044 30 41 30C41.5304 30 42.0391 30.2107 42.4142 30.5858C42.7893 30.9609 43 31.4696 43 32C43 32.3956 42.8827 32.7822 42.6629 33.1111C42.4432 33.44 42.1308 33.6964 41.7654 33.8478C41.3999 33.9991 40.9978 34.0387 40.6098 33.9616C40.2219 33.8844 39.8655 33.6939 39.5858 33.4142C39.3061 33.1345 39.1156 32.7781 39.0384 32.3902C38.9613 32.0022 39.0009 31.6001 39.1522 31.2346C39.3036 30.8692 39.56 30.5568 39.8889 30.3371Z" fill="#0D41FF"/>
<defs>
<filter id="filter0_b" x="-24" y="-24" width="112" height="112" filterUnits="userSpaceOnUse" color-interpolation-filters="sRGB">
<feFlood flood-opacity="0" result="BackgroundImageFix"/>
<feGaussianBlur in="BackgroundImage" stdDeviation="12"/>
<feComposite in2="SourceAlpha" operator="in" result="effect1_backgroundBlur"/>
<feBlend mode="normal" in="SourceGraphic" in2="effect1_backgroundBlur" result="shape"/>
</filter>
</defs>
</svg>
