<svg width="64" height="64" viewBox="0 0 64 64" fill="none" xmlns="http://www.w3.org/2000/svg">
<g filter="url(#filter0_b)">
<rect width="64" height="64" rx="32" fill="white"/>
</g>
<path fill-rule="evenodd" clip-rule="evenodd" d="M24.222 20.3594C26.5243 18.8211 29.2311 18 32 18C35.7118 18.0042 39.2703 19.4805 41.8949 22.1051C44.5195 24.7297 45.9958 28.2883 46 32C46 34.7689 45.1789 37.4757 43.6406 39.778C42.1022 42.0803 39.9157 43.8747 37.3576 44.9343C34.7994 45.9939 31.9845 46.2712 29.2687 45.731C26.553 45.1908 24.0584 43.8574 22.1005 41.8995C20.1426 39.9416 18.8092 37.447 18.269 34.7313C17.7288 32.0155 18.0061 29.2006 19.0657 26.6424C20.1253 24.0843 21.9197 21.8978 24.222 20.3594ZM26 41V42.3765C27.8208 43.4397 29.8915 44 32 44C34.1085 44 36.1792 43.4397 38 42.3765V41C37.9991 40.2046 37.6828 39.4421 37.1204 38.8796C36.5579 38.3172 35.7954 38.0009 35 38H29C28.2046 38.0009 27.4421 38.3172 26.8797 38.8796C26.3172 39.4421 26.0009 40.2046 26 41ZM38.5043 37.4412C39.4382 38.3626 39.9726 39.614 39.9925 40.9258C41.8059 39.3065 43.0848 37.1747 43.6597 34.8125C44.2346 32.4503 44.0784 29.9691 43.2119 27.6977C42.3453 25.4262 40.8093 23.4715 38.8071 22.0924C36.805 20.7133 34.4312 19.9748 32 19.9748C29.5688 19.9748 27.195 20.7133 25.1929 22.0924C23.1907 23.4715 21.6547 25.4262 20.7881 27.6977C19.9216 29.9691 19.7654 32.4503 20.3403 34.8125C20.9152 37.1747 22.1941 39.3065 24.0075 40.9258C24.0274 39.614 24.5619 38.3626 25.4957 37.4412C26.4296 36.5198 27.6881 36.0022 29 36H35C36.3119 36.0022 37.5704 36.5198 38.5043 37.4412ZM29.2222 24.8427C30.0444 24.2932 31.0111 24 32 24C33.3261 24 34.5979 24.5268 35.5355 25.4645C36.4732 26.4021 37 27.6739 37 29C37 29.9889 36.7068 30.9556 36.1574 31.7779C35.6079 32.6001 34.827 33.241 33.9134 33.6194C32.9998 33.9978 31.9945 34.0969 31.0246 33.9039C30.0546 33.711 29.1637 33.2348 28.4645 32.5355C27.7652 31.8363 27.289 30.9454 27.0961 29.9755C26.9031 29.0055 27.0022 28.0002 27.3806 27.0866C27.759 26.173 28.3999 25.3921 29.2222 24.8427ZM30.3333 31.4944C30.8266 31.8241 31.4067 32 32 32C32.7954 31.9991 33.5579 31.6827 34.1203 31.1203C34.6827 30.5579 34.9991 29.7954 35 29C35 28.4067 34.8241 27.8266 34.4944 27.3333C34.1648 26.8399 33.6962 26.4554 33.1481 26.2284C32.5999 26.0013 31.9967 25.9419 31.4147 26.0576C30.8328 26.1734 30.2982 26.4591 29.8787 26.8787C29.4591 27.2982 29.1734 27.8328 29.0576 28.4147C28.9419 28.9967 29.0013 29.5999 29.2284 30.148C29.4554 30.6962 29.8399 31.1648 30.3333 31.4944Z" fill="#0D41FF"/>
<defs>
<filter id="filter0_b" x="-24" y="-24" width="112" height="112" filterUnits="userSpaceOnUse" color-interpolation-filters="sRGB">
<feFlood flood-opacity="0" result="BackgroundImageFix"/>
<feGaussianBlur in="BackgroundImage" stdDeviation="12"/>
<feComposite in2="SourceAlpha" operator="in" result="effect1_backgroundBlur"/>
<feBlend mode="normal" in="SourceGraphic" in2="effect1_backgroundBlur" result="shape"/>
</filter>
</defs>
</svg>
