<svg width="64" height="64" viewBox="0 0 64 64" fill="none" xmlns="http://www.w3.org/2000/svg">
<g filter="url(#filter0_b)">
<rect width="64" height="64" rx="32" fill="white"/>
</g>
<path d="M28.744 30.7679L26.6614 32.8506C25.664 31.8386 24.696 30.5333 24.036 28.5386L26.8814 27.8199C27.3507 29.1253 28.0107 30.0199 28.744 30.7679ZM30.5334 23.1999L24.6667 17.3333L18.8 23.1999H23.2294C23.2587 24.3879 23.3467 25.4586 23.508 26.3826L26.3534 25.6639C26.2507 24.9599 26.1774 24.1239 26.1627 23.1999H30.5334ZM45.2 23.1999L39.3334 17.3333L33.4667 23.1999H37.852C37.7054 28.5973 35.9747 30.1666 34.1267 31.8239C33.3934 32.4693 32.6454 33.1733 32 34.0973C31.5014 33.3786 30.9294 32.8066 30.3427 32.2786L28.2747 34.3466C29.6387 35.5933 30.5334 36.6053 30.5334 39.3333V46.6666H33.4667V39.3333C33.4667 36.3706 34.508 35.4319 36.092 34.0093C38.116 32.1906 40.6094 29.9319 40.7854 23.1999H45.2Z" fill="white"/>
<path d="M38.6666 28.0002V25.3335C38.6666 23.5654 37.9642 21.8697 36.714 20.6195C35.4637 19.3692 33.768 18.6669 31.9999 18.6669C30.2318 18.6669 28.5361 19.3692 27.2859 20.6195C26.0356 21.8697 25.3333 23.5654 25.3333 25.3335V28.0002C24.2724 28.0002 23.255 28.4216 22.5048 29.1718C21.7547 29.9219 21.3333 30.9393 21.3333 32.0002V41.3335C21.3333 42.3944 21.7547 43.4118 22.5048 44.162C23.255 44.9121 24.2724 45.3335 25.3333 45.3335H38.6666C39.7275 45.3335 40.7449 44.9121 41.495 44.162C42.2452 43.4118 42.6666 42.3944 42.6666 41.3335V32.0002C42.6666 30.9393 42.2452 29.9219 41.495 29.1718C40.7449 28.4216 39.7275 28.0002 38.6666 28.0002ZM27.9999 25.3335C27.9999 24.2727 28.4213 23.2553 29.1715 22.5051C29.9216 21.755 30.9391 21.3335 31.9999 21.3335C33.0608 21.3335 34.0782 21.755 34.8283 22.5051C35.5785 23.2553 35.9999 24.2727 35.9999 25.3335V28.0002H27.9999V25.3335ZM39.9999 41.3335C39.9999 41.6872 39.8594 42.0263 39.6094 42.2763C39.3593 42.5264 39.0202 42.6669 38.6666 42.6669H25.3333C24.9796 42.6669 24.6405 42.5264 24.3904 42.2763C24.1404 42.0263 23.9999 41.6872 23.9999 41.3335V32.0002C23.9999 31.6466 24.1404 31.3074 24.3904 31.0574C24.6405 30.8073 24.9796 30.6669 25.3333 30.6669H38.6666C39.0202 30.6669 39.3593 30.8073 39.6094 31.0574C39.8594 31.3074 39.9999 31.6466 39.9999 32.0002V41.3335Z" fill="#8C08A0"/>
<defs>
<filter id="filter0_b" x="-24" y="-24" width="112" height="112" filterUnits="userSpaceOnUse" color-interpolation-filters="sRGB">
<feFlood flood-opacity="0" result="BackgroundImageFix"/>
<feGaussianBlur in="BackgroundImage" stdDeviation="12"/>
<feComposite in2="SourceAlpha" operator="in" result="effect1_backgroundBlur"/>
<feBlend mode="normal" in="SourceGraphic" in2="effect1_backgroundBlur" result="shape"/>
</filter>
</defs>
</svg>
