<svg width="64" height="64" viewBox="0 0 64 64" fill="none" xmlns="http://www.w3.org/2000/svg">
<g filter="url(#filter0_b)">
<rect width="64" height="64" rx="32" fill="white"/>
</g>
<path d="M45.3334 28.8936C45.2492 28.6498 45.096 28.4356 44.8925 28.277C44.689 28.1184 44.4438 28.0223 44.1867 28.0003L36.6001 26.8936L33.2001 20.0003C33.0909 19.7749 32.9204 19.5848 32.7082 19.4517C32.496 19.3187 32.2505 19.2482 32.0001 19.2482C31.7496 19.2482 31.5042 19.3187 31.292 19.4517C31.0797 19.5848 30.9093 19.7749 30.8001 20.0003L27.4001 26.8803L19.8134 28.0003C19.5666 28.0354 19.3346 28.1389 19.1437 28.2992C18.9528 28.4595 18.8107 28.67 18.7334 28.907C18.6627 29.1385 18.6563 29.385 18.715 29.6199C18.7738 29.8548 18.8953 30.0693 19.0667 30.2403L24.5734 35.5736L23.2401 43.147C23.1925 43.397 23.2174 43.6553 23.3119 43.8916C23.4064 44.1278 23.5665 44.3321 23.7734 44.4803C23.975 44.6245 24.2128 44.7095 24.4601 44.726C24.7074 44.7425 24.9544 44.6897 25.1734 44.5736L32.0001 41.0136L38.8001 44.587C38.9872 44.6925 39.1986 44.7477 39.4134 44.747C39.6958 44.748 39.9713 44.6593 40.2001 44.4936C40.4069 44.3455 40.5671 44.1412 40.6616 43.9049C40.7561 43.6687 40.781 43.4103 40.7334 43.1603L39.4001 35.587L44.9067 30.2536C45.0992 30.0906 45.2415 29.8762 45.3171 29.6354C45.3926 29.3947 45.3983 29.1375 45.3334 28.8936ZM37.1334 34.227C36.977 34.3782 36.8601 34.5654 36.7927 34.7723C36.7253 34.9791 36.7095 35.1993 36.7467 35.4136L37.7067 41.0003L32.6934 38.3336C32.5005 38.2309 32.2853 38.1772 32.0667 38.1772C31.8482 38.1772 31.633 38.2309 31.4401 38.3336L26.4267 41.0003L27.3867 35.4136C27.424 35.1993 27.4082 34.9791 27.3408 34.7723C27.2734 34.5654 27.1564 34.3782 27.0001 34.227L23.0001 30.227L28.6134 29.4136C28.8294 29.3836 29.0347 29.301 29.2114 29.1732C29.3881 29.0453 29.5307 28.8761 29.6267 28.6803L32.0001 23.6003L34.5067 28.6936C34.6028 28.8894 34.7454 29.0587 34.9221 29.1865C35.0987 29.3144 35.3041 29.3969 35.5201 29.427L41.1334 30.2403L37.1334 34.227Z" fill="#8C08A0"/>
<defs>
<filter id="filter0_b" x="-24" y="-24" width="112" height="112" filterUnits="userSpaceOnUse" color-interpolation-filters="sRGB">
<feFlood flood-opacity="0" result="BackgroundImageFix"/>
<feGaussianBlur in="BackgroundImage" stdDeviation="12"/>
<feComposite in2="SourceAlpha" operator="in" result="effect1_backgroundBlur"/>
<feBlend mode="normal" in="SourceGraphic" in2="effect1_backgroundBlur" result="shape"/>
</filter>
</defs>
</svg>
