<svg width="120" height="30" viewBox="0 0 120 30" fill="none" xmlns="http://www.w3.org/2000/svg">
<path d="M5.78349 5.44381C6.46208 5.67114 7.45205 6.00277 8.2717 6.57722C9.29811 7.29114 9.84151 8.23291 9.88679 9.37215C9.91698 10.3443 9.53962 11.2101 8.8 11.8785C7.92453 12.6228 6.6566 13.0633 5.28302 13.0633C5.19245 13.0633 5.0717 13.0633 4.95094 13.0481C2.56604 12.9266 0.633964 11.5595 0.0603764 9.53924L0 9.32658L1.8717 8.88608L1.93207 9.06835C2.36981 10.5873 3.84906 11.1949 5.08679 11.2405C6.03774 11.2861 6.91321 11.0278 7.44151 10.557C7.77358 10.238 7.93962 9.85823 7.92453 9.41772C7.90943 8.8557 7.63774 8.4 7.07924 8.02025C6.58113 7.67089 5.90189 7.41266 5.0566 7.13924C5.02642 7.13164 4.99623 7.12025 4.96605 7.10887C4.93586 7.09747 4.90566 7.08608 4.87547 7.07848C4.85283 7.07089 4.83397 7.0633 4.81511 7.0557C4.80472 7.05152 4.79432 7.04734 4.7833 7.04315C4.7743 7.03974 4.76489 7.03632 4.75472 7.03291C4.72264 7.02215 4.69246 7.01139 4.66418 7.00131C4.61261 6.98293 4.56729 6.96677 4.5283 6.95696L4.49811 6.94177C4.46038 6.92658 4.41887 6.91139 4.37736 6.8962C4.33585 6.88101 4.29434 6.86582 4.25661 6.85063C4.23892 6.85063 4.22642 6.84542 4.21606 6.8411C4.20873 6.83805 4.20248 6.83544 4.19622 6.83544L4.16604 6.82025C3.57736 6.62279 2.68679 6.3038 1.94717 5.75696C1.04151 5.08861 0.618869 4.22278 0.694341 3.20506C0.830189 1.6557 2.20377 0 4.95094 0C7.10944 0 8.69434 0.926583 9.41887 2.59747L9.50943 2.79494L7.69811 3.46329L7.62264 3.28101C7.41132 2.79494 7.07924 2.43038 6.64151 2.18734C6.18868 1.9443 5.6151 1.82278 4.93585 1.82278C4.92076 1.82278 4.34717 1.83798 3.77358 2.03544C3.04906 2.29367 2.6566 2.73418 2.61132 3.34177C2.58113 3.7519 2.77736 4.10127 3.21509 4.40506C3.62264 4.69367 4.16604 4.90633 4.86038 5.14937C4.92968 5.1668 4.99401 5.18924 5.05621 5.21094C5.10241 5.22705 5.14743 5.24275 5.19245 5.2557L5.25283 5.27089C5.38867 5.33164 5.53959 5.3772 5.69051 5.42277L5.72075 5.42278L5.78349 5.44381Z" fill="black"/>
<path d="M78.1132 12.8051H86.234V10.9823H79.8189V0.151899H77.8868V12.7899H78.1132V12.8051Z" fill="black"/>
<path d="M31.2302 29.9696V16.0101L41.5245 16.0405V18.9114H34.4906V21.5544H41.5245V24.4405H34.4906V27.0987H41.5245V29.9848H31.8943V29.9696H31.2302Z" fill="black"/>
<path d="M21.0868 16.0557L23.3358 25.9139L25.9925 16.0405H29.1774L25.4189 30H21.0717L19.4868 23.043L17.9019 30H13.5547L9.79623 16.0405H12.9811L15.6528 25.9291L17.9019 16.0557L17.8868 16.0405H21.0868V16.0557Z" fill="black"/>
<path d="M22.1585 0.151899H20.2264V12.7899H22.1585V0.151899Z" fill="black"/>
<path d="M105.826 12.8051H96.8302V12.7899H96.6038V0.151899H105.826V1.95949H98.5359V5.51392H105.374V7.32152H98.5359V10.9823H105.826V12.8051Z" fill="black"/>
<path d="M64.5887 19.3063H98.5811V30H101.842V19.3063H105.811V16.0101H64.5887V19.3063Z" fill="black"/>
<path d="M116.74 21.5544V16.0101H120V29.9696H116.74V24.4405H111.909V30H108.649V16.0405H111.909V21.5544H116.74Z" fill="black"/>
<path d="M43.8943 4.26836C43.8943 4.26836 44.4528 10.9519 44.634 12.6076L44.6491 12.7899H46.6113L45.2679 0.334177L45.2377 0.151899H43.5925L39.7585 8.08101L35.9245 0.151899H34.2642L32.9358 12.562L32.9057 12.7899H34.8528L35.7887 4.10127L39.7585 12.4861L39.9396 12.0911C40.6943 10.5266 43.8943 4.26836 43.8943 4.26836Z" fill="black"/>
<path d="M58.3547 16.0405H61.6151V26.7038H95.6377V30H58.3547V16.0405Z" fill="black"/>
<path fill-rule="evenodd" clip-rule="evenodd" d="M48.0906 16.0405L43.4717 30H46.6415L47.2604 28.1468H52.3925L53.0113 30H56.1962L51.5774 16.0405H48.0906ZM48.1358 25.4734L49.8113 20.4152L51.4868 25.4734H48.1358Z" fill="black"/>
<path fill-rule="evenodd" clip-rule="evenodd" d="M62.8075 7.59494H59.7434V12.8051H57.8113V0.151899H62.8226C63.4717 0.151899 64.0906 0.243039 64.6642 0.410126C65.2226 0.562025 65.7208 0.805064 66.1887 1.13924C66.6113 1.45823 66.9434 1.85316 67.2 2.33924C67.4264 2.79494 67.5472 3.31139 67.5472 3.87342C67.5472 4.45063 67.4415 4.9519 67.2 5.4076C66.9585 5.87848 66.6113 6.28861 66.1887 6.60759C65.766 6.91139 65.2679 7.15443 64.6642 7.3519C64.1208 7.51899 63.5019 7.59494 62.8075 7.59494ZM62.8075 1.97468H59.7434V5.77215H62.8075C63.3057 5.77215 63.7283 5.71139 64.0906 5.60506C64.4075 5.51392 64.7094 5.36203 64.9509 5.19494C65.1925 5.01266 65.3434 4.81519 65.4491 4.61772C65.5547 4.37468 65.6151 4.13164 65.6151 3.85823C65.6151 3.6 65.5698 3.34177 65.4491 3.11392C65.3434 2.90127 65.1925 2.7038 64.966 2.53671C64.7396 2.38481 64.4528 2.2481 64.0906 2.14177C63.7283 2.03544 63.2906 1.97468 62.8075 1.97468Z" fill="black"/>
</svg>
