<svg width="65" height="50" viewBox="0 0 65 50" fill="none" xmlns="http://www.w3.org/2000/svg">
<mask id="path-1-inside-1" fill="white">
<path fill-rule="evenodd" clip-rule="evenodd" d="M0.350098 0.762695H16.5129V33.0891L65.0005 33.0891V49.2519L16.5122 49.2519V49.251H0.350098V0.762695ZM32.6731 0.763405V16.9262L64.9986 16.9262V0.763403L32.6731 0.763405Z"/>
</mask>
<path d="M16.5129 0.762695H17.5129V-0.237305H16.5129V0.762695ZM0.350098 0.762695V-0.237305H-0.649902V0.762695H0.350098ZM16.5129 33.0891H15.5129V34.0891H16.5129V33.0891ZM65.0005 33.0891H66.0005V32.0891H65.0005V33.0891ZM65.0005 49.2519V50.2519H66.0005V49.2519H65.0005ZM16.5122 49.2519H15.5122V50.2519H16.5122V49.2519ZM16.5122 49.251H17.5122V48.251H16.5122V49.251ZM0.350098 49.251H-0.649902V50.251H0.350098V49.251ZM32.6731 16.9262H31.6731V17.9262H32.6731V16.9262ZM32.6731 0.763405V-0.236595L31.6731 -0.236595V0.763405H32.6731ZM64.9986 16.9262V17.9262H65.9986V16.9262H64.9986ZM64.9986 0.763403H65.9986V-0.236597H64.9986V0.763403ZM16.5129 -0.237305H0.350098V1.7627H16.5129V-0.237305ZM17.5129 33.0891V0.762695H15.5129V33.0891H17.5129ZM65.0005 32.0891L16.5129 32.0891V34.0891L65.0005 34.0891V32.0891ZM66.0005 49.2519V33.0891H64.0005V49.2519H66.0005ZM16.5122 50.2519L65.0005 50.2519V48.2519L16.5122 48.2519V50.2519ZM15.5122 49.251V49.2519H17.5122V49.251H15.5122ZM0.350098 50.251H16.5122V48.251H0.350098V50.251ZM-0.649902 0.762695V49.251H1.3501V0.762695H-0.649902ZM33.6731 16.9262V0.763405H31.6731V16.9262H33.6731ZM64.9986 15.9262L32.6731 15.9262V17.9262L64.9986 17.9262V15.9262ZM63.9986 0.763403V16.9262H65.9986V0.763403H63.9986ZM32.6731 1.7634L64.9986 1.7634V-0.236597L32.6731 -0.236595V1.7634Z" fill="#A6B1BD" mask="url(#path-1-inside-1)"/>
</svg>
