<svg width="130" height="30" viewBox="0 0 130 30" fill="none" xmlns="http://www.w3.org/2000/svg">
<path d="M6.2457 5.44381C6.97852 5.67114 8.04761 6.00277 8.93276 6.57722C10.0412 7.29114 10.628 8.23291 10.6769 9.37215C10.7095 10.3443 10.302 11.2101 9.50328 11.8785C8.55784 12.6228 7.18859 13.0633 5.70523 13.0633C5.60742 13.0633 5.47702 13.0633 5.34661 13.0481C2.77111 12.9266 0.68463 11.5595 0.0652016 9.53924L0 9.32658L2.02128 8.88608L2.08648 9.06835C2.55921 10.5873 4.15667 11.1949 5.49332 11.2405C6.52026 11.2861 7.4657 11.0278 8.03622 10.557C8.39484 10.238 8.57415 9.85823 8.55784 9.41772C8.54154 8.8557 8.24813 8.4 7.64501 8.02025C7.10709 7.67089 6.37356 7.41266 5.46072 7.13924C5.42812 7.13164 5.39552 7.12025 5.36292 7.10887C5.33032 7.09747 5.29772 7.08608 5.26511 7.07848C5.24066 7.07089 5.22029 7.0633 5.19992 7.0557C5.1887 7.05152 5.17748 7.04734 5.16557 7.04315C5.15586 7.03974 5.1457 7.03632 5.13471 7.03291C5.10007 7.02215 5.06748 7.01139 5.03693 7.00131C4.98124 6.98293 4.9323 6.96677 4.8902 6.95696L4.85759 6.94177C4.81684 6.92658 4.77202 6.91139 4.72719 6.8962C4.68236 6.88101 4.63754 6.86582 4.59679 6.85063C4.57769 6.85063 4.56418 6.84542 4.553 6.8411C4.54508 6.83805 4.53833 6.83544 4.53158 6.83544L4.49898 6.82025C3.86326 6.62279 2.90151 6.3038 2.10278 5.75696C1.12474 5.08861 0.668328 4.22278 0.749831 3.20506C0.896536 1.6557 2.3799 0 5.34661 0C7.67761 0 9.38918 0.926583 10.1716 2.59747L10.2694 2.79494L8.31333 3.46329L8.23183 3.28101C8.00362 2.79494 7.64501 2.43038 7.17229 2.18734C6.68327 1.9443 6.06385 1.82278 5.33032 1.82278C5.31401 1.82278 4.69459 1.83798 4.07516 2.03544C3.29273 2.29367 2.86892 2.73418 2.82001 3.34177C2.78741 3.7519 2.99932 4.10127 3.47204 4.40506C3.91216 4.69367 4.49898 4.90633 5.24881 5.14937C5.32365 5.1668 5.39312 5.18924 5.4603 5.21094C5.51018 5.22705 5.5588 5.24275 5.60742 5.2557L5.67263 5.27089C5.81932 5.33164 5.9823 5.3772 6.14529 5.42277L6.17795 5.42278L6.2457 5.44381Z" fill="black"/>
<path d="M84.3559 12.8051H93.1256V10.9823H86.1979V0.151899H84.1114V12.7899H84.3559V12.8051Z" fill="black"/>
<path d="M33.7261 29.9696V16.0101L44.8431 16.0405V18.9114H37.247V21.5544H44.8431V24.4405H37.247V27.0987H44.8431V29.9848H34.4433V29.9696H33.7261Z" fill="black"/>
<path d="M22.772 16.0557L25.2008 25.9139L28.0697 16.0405H31.5092L27.4503 30H22.7557L21.0441 23.043L19.3326 30H14.638L10.5791 16.0405H14.0186L16.9038 25.9291L19.3326 16.0557L19.3163 16.0405H22.772V16.0557Z" fill="black"/>
<path d="M23.9294 0.151899H21.8429V12.7899H23.9294V0.151899Z" fill="black"/>
<path d="M114.284 12.8051H104.569V12.7899H104.324V0.151899H114.284V1.95949H106.411V5.51392H113.795V7.32152H106.411V10.9823H114.284V12.8051Z" fill="black"/>
<path d="M69.7505 19.3063H106.46V30H109.981V19.3063H114.268V16.0101H69.7505V19.3063Z" fill="black"/>
<path d="M126.069 21.5544V16.0101H129.59V29.9696H126.069V24.4405H120.853V30H117.332V16.0405H120.853V21.5544H126.069Z" fill="black"/>
<path d="M47.4023 4.26836C47.4023 4.26836 48.0054 10.9519 48.201 12.6076L48.2173 12.7899H50.3364L48.8857 0.334177L48.8531 0.151899H47.0763L42.9359 8.08101L38.7956 0.151899H37.0025L35.568 12.562L35.5354 12.7899H37.6382L38.6489 4.10127L42.9359 12.4861L43.1315 12.0911C43.9466 10.5266 47.4023 4.26836 47.4023 4.26836Z" fill="black"/>
<path d="M63.0183 16.0405H66.5393V26.7038H103.281V30H63.0183V16.0405Z" fill="black"/>
<path fill-rule="evenodd" clip-rule="evenodd" d="M51.9339 16.0405L46.9459 30H50.369L51.0374 28.1468H56.5796L57.2479 30H60.6873L55.6993 16.0405H51.9339ZM51.9828 25.4734L53.7922 20.4152L55.6015 25.4734H51.9828Z" fill="black"/>
<path fill-rule="evenodd" clip-rule="evenodd" d="M67.827 7.59494H64.518V12.8051H62.4315V0.151899H67.8433C68.5443 0.151899 69.2126 0.243039 69.832 0.410126C70.4351 0.562025 70.9731 0.805064 71.4784 1.13924C71.9348 1.45823 72.2934 1.85316 72.5705 2.33924C72.815 2.79494 72.9454 3.31139 72.9454 3.87342C72.9454 4.45063 72.8313 4.9519 72.5705 5.4076C72.3097 5.87848 71.9348 6.28861 71.4784 6.60759C71.022 6.91139 70.484 7.15443 69.832 7.3519C69.2452 7.51899 68.5769 7.59494 67.827 7.59494ZM67.827 1.97468H64.518V5.77215H67.827C68.365 5.77215 68.8214 5.71139 69.2126 5.60506C69.5549 5.51392 69.8809 5.36203 70.1417 5.19494C70.4025 5.01266 70.5655 4.81519 70.6796 4.61772C70.7937 4.37468 70.859 4.13164 70.859 3.85823C70.859 3.6 70.8101 3.34177 70.6796 3.11392C70.5655 2.90127 70.4025 2.7038 70.158 2.53671C69.9135 2.38481 69.6038 2.2481 69.2126 2.14177C68.8214 2.03544 68.3486 1.97468 67.827 1.97468Z" fill="black"/>
</svg>
